<?xml version="1.0" encoding="utf-8"?><svg width="624" height="318" viewBox="0 0 624 318" xmlns="http://www.w3.org/2000/svg" xmlns:xlink="http://www.w3.org/1999/xlink"><svg id="cta" width="312" height="72" viewBox="-6 -6 312 72"><style>.ast0{fill:#dfdfdf}</style><path class="ast0" d="M0 0v60h300V0H0zm217.7 48.3H82.3C72.2 48.3 64 40.1 64 30s8.2-18.3 18.3-18.3h135.4c10.1 0 18.3 8.2 18.3 18.3s-8.2 18.3-18.3 18.3z"/></svg><svg id="ctatext" width="66" height="21" viewBox="-6 -6 66 21" x="525" y="41.6"><style>.bst0{fill:#FFF}</style><path id="bctatext.svg" class="bst0" d="M6.6 1.6C6 .5 4.7-.1 3.5 0 1.3 0 .4 1.1.4 2.5c0 1.2.7 2.2 2.6 2.6l.7.2c1 .2 1.2.5 1.2 1 0 .7-.5 1-1.6 1-.8 0-1.7-.4-2-1.2L0 7.2C.7 8.3 2 9 3.4 8.9c2.2 0 3.4-1 3.4-2.5 0-1.2-.7-2-2.6-2.5l-.8-.4c-1-.2-1.2-.6-1.2-1.1 0-.6.4-1 1.4-1 .7 0 1.4.4 1.8 1l1.2-.8zm2.5 7.1H11V.3H9.1v8.4zm8.1.1c1 .1 1.9-.4 2.4-1.2l.1 1.1h1.4V4.1h-3.5v1.4h1.8v.1c0 .8-.7 1.6-1.7 1.6h-.1c-1.3 0-2.2-.7-2.2-2.8s.7-2.8 2.2-2.8c.7-.1 1.4.4 1.7 1l1.6-.8C20.3.6 19.2 0 17.5 0c-2.8 0-4.1 1.3-4.1 4.3s1.5 4.5 3.8 4.5zm12.1-.1H31V.3h-2v5.6L25 .3h-1.6v8.4h1.9V3.4l4 5.3zm13.2-3.4c.1 1-.6 1.8-1.7 1.9-1 .1-1.8-.7-1.9-1.7V.3H37v5c0 2.5 1.3 3.6 3.7 3.6 2.3 0 3.7-1.1 3.7-3.6v-5h-1.9v5zM47 8.7h2V6.1h1.8c2 0 3.2-1.1 3.2-3 .1-1.4-1-2.8-2.4-3H47v8.6zm3.8-6.9c.6-.1 1.2.4 1.3 1.1v.2c.1.7-.4 1.3-1.1 1.4h-1.9V1.8h1.7z"/></svg><svg id="eftext1" width="165.7" height="76.4" viewBox="-6 -6 165.7 76.4" x="312" y="211.3"><style>.cst0{fill:#63C}</style><path id="ceftext.svg" class="cst0" d="M18 25.9h6L15.5.9h-7L0 25.9h5.8L7 22h9.6l1.4 3.9zM11.9 6.6l3.5 10.9h-7l3.5-10.9zm27.3 19.3H44V.9h-5.6v9.2c-1.2-1.6-3.2-2.5-5.2-2.4-4.7 0-7.8 3.2-7.8 9.5 0 6 2.9 9.2 7.5 9.2 2.5.2 4.8-1.1 6.1-3.2l.2 2.7zm-.8-8.9c0 3.5-1.6 5.1-3.9 5.1-2.5 0-3.7-1.6-3.7-5.1 0-3.7 1.3-5.2 3.7-5.2 2.3 0 3.9 1.5 3.9 5.2zm15.5 9.3c2.4.2 4.7-1 5.9-3.1l.4 2.6h4.7V15.3c0-5.7-3.6-7.6-8.5-7.6-3.6 0-6.4 1-8.1 3.1l2.1 3.1c1.3-1.4 3.2-2.2 5.1-2 2.2 0 3.6.6 3.8 3.2h-3.6c-5 0-8 2.3-8 6.1.2 3.3 2.6 5.1 6.2 5.1zm1.7-3.5c-1.8 0-2.6-.8-2.6-2.1 0-1.7 1.1-2.4 3.4-2.4h3v.3c0 2.7-1.4 4.2-3.8 4.2zM69.7 8.1l-1 24.4h5.6l1-8.2c1.2 1.4 3.1 2.2 5 2.1 5.3 0 8-3.7 8-9.6s-2.6-9.1-7.2-9.1c-2.6-.1-5 1.3-6.2 3.6l-.5-3.2h-4.7zm5.5 9c0-3.7 1.6-5.2 3.9-5.2 2.4 0 3.8 1.5 3.8 5.2 0 3.5-1.2 5.2-3.9 5.2-2.2-.1-3.8-1.7-3.8-5.2zm15.2-9v4.1h2.7v7.7c0 4.9 2.9 6.5 6.5 6.5 1.5 0 3-.3 4.4-1l-.7-3.6c-.7.3-1.4.5-2.2.5-1.6 0-2.5-.7-2.5-2.8v-7.2h4.8V8.1h-4.7v-5h-5.5v5h-2.8zm16.6 0v17.7h5.6V8.1H107zm-.5-5.2c0 2 1.2 2.9 3.2 2.9s3.2-.9 3.2-2.9-1.2-2.9-3.2-2.9-3.2.9-3.2 2.9zm8.8 5.2l6.9 17.7h5.8l6.9-17.7h-5.7l-3.9 12-4.1-12h-5.9zm30.2 18.3c3.7 0 6.5-1.3 7.9-4l-3.4-2.1c-.8 1.5-2.4 2.4-4.1 2.2-2.6 0-4-1.1-4.3-4h11.9c.1-.6.1-1.3.1-1.9 0-5-2.4-9-8.3-9-5.8 0-9.1 3.5-9.1 9.4.1 6.4 3.7 9.4 9.3 9.4zm-.2-14.8c2 0 3.1 1.2 3.3 3.7h-6.9c.2-2.5 1.5-3.7 3.6-3.7zM2 63.9h5.8v-7.3H13c5.9 0 9.5-3.1 9.5-8.8 0-5.3-2.9-8.8-8.8-8.8H2v24.9zm10.8-20.1c2.7 0 3.9 1.7 3.9 3.8 0 2.7-1.5 4.1-3.9 4.1h-5v-8l5 .1zM37.9 55c0 3.7-1.2 5.2-4 5.2-2.7 0-4-1.5-4-5.2s1.2-5.1 4-5.1c2.9 0 4 1.4 4 5.1zm-13.2 0c0 6.3 3.2 9.4 9.3 9.4 6.1 0 9.3-3.1 9.3-9.4 0-6.4-3.1-9.3-9.3-9.3-5.9 0-9.3 2.9-9.3 9.3zm22.6 8.9h5.6v-7c0-3.8 1.9-6.1 5.9-5.8v-5.3c-2.7-.1-5.3 1.5-6.3 4l-.5-3.5h-4.7v17.6zm13.5-17.8v4.1h2.7v7.7c0 4.9 2.9 6.5 6.5 6.5 1.5 0 3-.3 4.4-1l-.7-3.6c-.7.3-1.4.5-2.2.5-1.6 0-2.5-.7-2.5-2.8v-7.2h4.7v-4.1H69v-5h-5.5v5l-2.7-.1zm14.6 0v4.1h2.9v13.6h5.5V50.2h4.6v-4.1h-4.6v-1.2c0-2.1.8-2.9 2.4-2.9.7 0 1.4.1 2 .5l1-3.7c-1.3-.7-2.7-1-4.2-1-4 0-6.7 2.1-6.7 7v1.4h-2.9v-.1zm28.2 8.9c0 3.7-1.2 5.2-4 5.2-2.7 0-4-1.5-4-5.2s1.2-5.1 4-5.1 4 1.4 4 5.1zm-13.3 0c0 6.3 3.2 9.4 9.3 9.4 6.1 0 9.3-3.1 9.3-9.4 0-6.4-3.1-9.3-9.3-9.3-5.8 0-9.3 2.9-9.3 9.3zm28.2-16.1h-5.6v25h5.6v-25zm5 7.2v17.7h5.6V46.1h-5.6zm-.4-5.2c0 2 1.2 2.9 3.2 2.9s3.2-.9 3.2-2.9-1.2-2.9-3.2-2.9-3.2.9-3.2 2.9zM146.4 55c0 3.7-1.2 5.2-4 5.2-2.7 0-4-1.5-4-5.2s1.2-5.1 4-5.1c2.9 0 4 1.4 4 5.1zm-13.2 0c0 6.3 3.2 9.4 9.3 9.4 6.1 0 9.3-3.1 9.3-9.4 0-6.4-3.1-9.3-9.3-9.3-5.9 0-9.3 2.9-9.3 9.3z"/></svg><svg id="eftext2" width="312" height="162" viewBox="-6 -6 312 162" y="155.2"><style>.dst0{fill:#dfdfdf}</style><path class="dst0" d="M59.9 40.5c-1.8 0-2.9 1-3.1 3.2h5.9c-.1-2.2-1.1-3.2-2.8-3.2zM139.4 108.7h-.4c-1.8.1-3.3 1.6-3.2 3.5v.4c.2 1.8 1.8 3.1 3.5 2.9 2.1 0 3.5-1.2 3.5-3.4 0-2.1-1.1-3.4-3.4-3.4zM168.1 73.8c-2.4 0-3.4 1.3-3.4 4.4 0 3.2 1.1 4.5 3.4 4.5s3.4-1.3 3.4-4.5-1.1-4.4-3.4-4.4zM97.5 40.5c-1.8 0-2.9 1-3.1 3.2h5.9c-.1-2.2-1.1-3.2-2.8-3.2zM27.7 78.2c0 3.2 1.1 4.5 3.4 4.5s3.4-1.3 3.4-4.5c0-3.1-1-4.4-3.4-4.4s-3.4 1.2-3.4 4.4zM106.6 73.7c-2 0-3.1 1.3-3.1 4.5 0 3 1 4.4 3.2 4.4 2 0 3.4-1.4 3.4-4.4-.1-3.2-1.5-4.5-3.5-4.5zM85.3 81.3c0 1.1.7 1.8 2.3 1.8 2 0 3.2-1.3 3.2-3.6v-.3h-2.6c-1.9 0-2.9.7-2.9 2.1zM43.1 106.8c-2.4 0-3.4 1.3-3.4 4.4 0 3.2 1.1 4.5 3.4 4.5s3.4-1.3 3.4-4.5-1-4.4-3.4-4.4zM253.5 73.5c-1.8 0-2.9 1-3.1 3.2h5.9c-.1-2.2-1.1-3.2-2.8-3.2zM219.3 40.7c-2.1 0-3.2 1.3-3.2 4.2 0 2.9 1.1 4.2 3.2 4.2 2 0 3.4-1.4 3.4-4.2 0-2.9-1.4-4.2-3.4-4.2zM100.7 100.8c-2.7 0-4.2 1.8-4.2 7.3s1.5 7.3 4.2 7.3 4.2-1.8 4.2-7.3c0-5.6-1.5-7.3-4.2-7.3z"/><path class="dst0" d="M0 0v150h300V0H0zm186 30.6c1.8 0 2.8.8 2.8 2.5s-1 2.5-2.8 2.5-2.8-.8-2.8-2.5c0-1.8 1-2.5 2.8-2.5zm2.4 6.9v15.2h-4.8V37.5h4.8zm-19 0l3.5 10.3 3.4-10.3h4.9l-5.9 15.2h-5l-5.9-15.2h5zm-9.8-6.9c1.8 0 2.8.8 2.8 2.5s-1 2.5-2.8 2.5c-1.8 0-2.8-.8-2.8-2.5 0-1.8 1.1-2.5 2.8-2.5zm2.4 6.9v15.2h-4.8V37.5h4.8zm-16.9 3.2c-1.6-.1-3.3.5-4.4 1.7l-1.8-2.7c1.5-1.7 3.8-2.6 6.9-2.6 4.2 0 7.2 1.6 7.2 6.5v9.1h-4l-.3-2.3c-1.1 1.8-3 2.8-5.1 2.7-3.1 0-5.1-1.6-5.1-4.5 0-3.3 2.5-5.2 6.8-5.2h3.1c-.1-2.1-1.3-2.7-3.3-2.7zm-6.4 27.9c-1.8 0-2.8-.8-2.8-2.5s1-2.5 2.8-2.5 2.8.8 2.8 2.5c-.1 1.7-1.1 2.5-2.8 2.5zm2.4 1.9v15.2h-4.8V70.5h4.8zm-23.2-33l2.7 9.6 2.8-9.5h3.9l2.9 9.6 2.6-9.6h4.3l-4.7 15.2H128l-2.8-9.8-2.8 9.8h-4.3l-4.8-15.2h4.6zm-20.3-.4c5.1 0 7.2 3.4 7.2 7.7 0 .6 0 1.1-.1 1.7H94.4c.2 2.4 1.5 3.4 3.7 3.4 1.5.2 2.9-.6 3.5-1.9l2.9 1.8c-1.3 2.4-3.6 3.5-6.8 3.5-4.8 0-7.9-2.5-7.9-7.9 0-5.3 2.8-8.3 7.8-8.3zm-19.5.4h4l.4 3c.9-2.2 3.1-3.5 5.4-3.4v4.6c-3.4-.3-5 1.7-5 5v6h-4.8V37.5zM69.7 32c.2-1.2 1.3-2.1 2.6-1.9 1.7 0 2.7.9 2.7 3.1 0 3.1-1.5 5.3-4.2 6l-.9-1.9c1.1-.3 2-1.2 2.4-2.3h-.4c-1.2-.1-2.1-1.2-2-2.4-.3-.3-.2-.5-.2-.6zM60 37.1c5.1 0 7.2 3.4 7.2 7.7 0 .6 0 1.1-.1 1.7H56.8c.2 2.4 1.5 3.4 3.7 3.4 1.5.2 2.9-.6 3.5-1.9l2.9 1.8c-1.3 2.4-3.6 3.5-6.8 3.5-4.8 0-7.9-2.5-7.9-7.9 0-5.3 2.8-8.3 7.8-8.3zm-32.9-5.8l3.6 14.5 3.8-14.5h4.4l3.8 14.5 3.7-14.6h4.9l-6.1 21.4h-4.9l-3.7-14.4-3.7 14.4h-4.8L22 31.3h5.1zm12 46.8c0 5.4-2.8 8-8 8-5.3 0-8-2.6-8-8 0-5.5 3-8 8-8 5.3 0 8 2.5 8 8zm-5.6 25.4v3.5h-4v11.7h-4.7V107h-2.5v-3.5h2.5v-1.2c0-4.2 2.3-6 5.7-6 1.2 0 2.5.2 3.6.8l-.8 3.1c-.5-.3-1.1-.5-1.7-.4-1.3 0-2 .7-2 2.5v1.1h3.9zm9.6 15.7c-5.3 0-8-2.6-8-8 0-5.5 3-8 8-8 5.3 0 8 2.5 8 8-.1 5.3-2.8 8-8 8zm10.4-36c-1.1 1.9-3.2 3.1-5.4 3-4.1 0-5.8-2.5-5.8-6v-9.7h4.8v8.3c0 2.3.9 3.3 2.7 3.3s3.2-1.3 3.2-3.9v-7.8h4.8v15.2h-3.9l-.4-2.4zm5.8 29.5v6h-4.8v-15.2h4l.4 3c.9-2.2 3.1-3.5 5.4-3.4v4.6c-3.4-.2-5 1.7-5 5zm7.6-33v6h-4.8V70.5h4l.4 3c.9-2.2 3.1-3.5 5.4-3.4v4.6c-3.3-.2-5 1.7-5 5zm22.9 39H73.6v-3.6l7-6.3c2.2-2 3.5-3.4 3.5-5.2 0-1.9-1.3-2.7-3.2-2.7-2.4 0-3.5 1-4.6 3.1l-3.2-2.4c1.8-3.4 4.5-4.7 8.4-4.7 4.3 0 7.5 1.7 7.5 6.1 0 3-1.5 5.2-4.8 8.3l-3.9 3.6 9.5-.1v3.9zm1.4-35.2c-1.1 1.8-3 2.8-5.1 2.7-3.1 0-5.1-1.6-5.1-4.5 0-3.3 2.5-5.2 6.8-5.2h3.1c-.1-2.2-1.3-2.7-3.2-2.7-1.6-.1-3.3.5-4.4 1.7l-1.8-2.7c1.5-1.7 3.8-2.6 6.9-2.6 4.2 0 7.2 1.6 7.2 6.5v9.1h-4.1l-.3-2.3zm9.5 35.7c-5.8 0-8.8-3.5-8.8-11.1 0-7.7 3-11.1 8.8-11.1 5.8 0 8.8 3.5 8.8 11.1 0 7.5-3.1 11.1-8.8 11.1zm9.7-35.8c-1.1 1.8-3.1 2.9-5.2 2.8-3.9 0-6.4-2.7-6.4-7.9 0-5.4 2.7-8.2 6.7-8.2 1.7-.1 3.4.7 4.5 2.1v-7.9h4.8v21.4h-4.1l-.3-2.3zm16.8 35.3h-14.6v-4.1h4.9v-11.7l-2.4 1.6-1.8-3.9 5.9-3.5h3.1v17.5h5v4.1zm-4.2-33l-5.9-15.2h5l3.5 10.3 3.4-10.3h4.9L128 85.7h-5zm16.7 33.5c-5.8 0-9.2-3.4-9.2-11 0-7.4 3.1-11.2 9.3-11.2 3.5 0 6.3 1.1 7.5 3.6l-3 2.5c-.8-1.6-2.5-2.5-4.2-2.4-3.1 0-4.9 2-4.9 7.4v.7c1-2.2 3.2-3.5 5.6-3.4 4.1 0 6.8 2.3 6.8 6.7-.1 4.1-2.7 7.1-7.9 7.1zm11.1-33c-3.1 0-5.6-.9-6.9-3l2.4-2.4c1 1.4 2.7 2.2 4.5 2.1 1.7 0 2.4-.5 2.4-1.3s-.5-1.1-2-1.4l-1.3-.3c-3.1-.7-5.2-2.4-5.2-5 0-2.7 2-4.8 6.4-4.8 2.9 0 4.9.8 6.4 2.6l-2.5 2.5c-.9-1.1-2.3-1.8-3.8-1.7-1.4 0-2.2.4-2.2 1.2 0 .7.6 1.1 2 1.4l1.7.4c3.5.7 4.8 2.4 4.8 4.7 0 2.6-1.6 5-6.7 5zm17.3 0c-5.3 0-8-2.6-8-8 0-5.5 3-8 8-8 5.3 0 8 2.5 8 8-.1 5.3-2.8 8-8 8zm16.2-6.5v6h-4.8V70.5h4l.4 3c.9-2.2 3.1-3.5 5.4-3.4v4.6c-3.4-.2-5 1.7-5 5zm16.4 8.9c-1.2 3-3.4 3.9-6.3 3.9-1.1 0-2.2-.2-3.3-.6l.5-3.5c.7.3 1.4.5 2.2.5 1.2.1 2.3-.7 2.6-1.9l.4-1.2-6-15.3h5l3.5 10.1 3.4-10.1h5l-7 18.1zm7.6-35.9h-4.8v-7.9c0-2.6-.9-3.5-2.7-3.5-2 0-3.3 1.3-3.3 3.9v7.5h-4.8V37.5h4l.4 2.8c1.1-2 3.3-3.2 5.6-3.1 3.9 0 5.7 2.4 5.7 6.1v9.4zm18.4 17.8V74h-4v11.7H218V74.1h-2.5v-3.5h2.5v-1.2c0-4.2 2.3-6 5.7-6 1.2 0 2.5.2 3.6.8l-.8 3.1c-.5-.3-1.1-.5-1.7-.4-1.3 0-2 .7-2 2.5v1.1h3.9zm.7-33v14.6c0 5-3.6 7.4-8.5 7.4-3 0-5.7-.9-6.9-3.3l2.7-2.4c.8 1.5 2.4 2.3 4 2.2 2.4 0 3.9-1.2 3.9-3.9V50c-1 1.7-2.8 2.7-4.8 2.5-3.8 0-6.4-2.5-6.4-7.6 0-5.2 2.6-7.8 6.6-7.8 2-.2 4 .9 5 2.6l.4-2.2h4zm15.7 42h-10.2c.2 2.4 1.5 3.4 3.7 3.4 1.5.2 2.9-.6 3.5-1.9l2.9 1.8c-1.3 2.4-3.6 3.5-6.8 3.5-4.8 0-7.9-2.5-7.9-7.9 0-5.1 2.8-8.1 7.8-8.1 5.1 0 7.2 3.4 7.2 7.7-.1.4-.1.9-.2 1.5zm17.5 0h-10.2c.2 2.4 1.5 3.4 3.7 3.4 1.5.2 2.9-.6 3.5-1.9l2.9 1.8c-1.3 2.4-3.6 3.5-6.8 3.5-4.8 0-7.9-2.5-7.9-7.9 0-5.1 2.8-8.1 7.8-8.1 5.1 0 7.2 3.4 7.2 7.7-.1.4-.1.9-.2 1.5z"/><path class="dst0" d="M142.9 48.3c0 1.1.7 1.8 2.3 1.8 2 0 3.2-1.3 3.2-3.6v-.3h-2.6c-2 0-2.9.7-2.9 2.1zM236 73.5c-1.8 0-2.9 1-3.1 3.2h5.9c-.1-2.2-1.1-3.2-2.8-3.2z"/></svg><svg width="172" height="21" viewBox="-6 -6 172 21" id="legal" x="312" y="190.3"><path d="M0 .1h4.9v1H1.1V3h3.4v1H1.1v2h4v1H0V.1zM5.5 1.3h1.1L6.1.5l.8-.5.5 1L8 0l.7.5-.5.8h1.1v.8H8.2l.5 1-.7.5-.5-1-.6 1-.8-.5.5-1H5.5v-.8zM15.2.1v1H13v5.8h-1.1V1.1H9.8v-1h5.4zM16.3.1h2.9c1.6 0 2.3.7 2.3 2 0 1.1-.5 1.7-1.2 2l1.3 2.7h-1.2l-1.2-2.4h-1.7v2.4h-1.1V.1h-.1zm1.1 1v2.4h1.7c.8 0 1.2-.4 1.2-1.2 0-.7-.4-1.2-1.2-1.2h-1.7zM26.5 5.7h-2.9l-.4 1.2h-1.1L24.4.1h1.4l2.3 6.8H27l-.5-1.2zm-2.6-1h2.3L25 1.2l-1.1 3.5zM29.2 6.9V.1h2.7c2 0 3 1 3 3.4 0 2.3-1 3.4-3 3.4h-2.7zm2.5-1c1.2 0 1.9-.6 1.9-2.4s-.7-2.4-1.8-2.4h-1.6v4.8h1.5zM36.3.1h4.9v1h-3.9V3h3.4v1h-3.4v2h4v1h-5.1c.1 0 .1-6.9.1-6.9zM44.6 3.5c0-2.5 1-3.5 3.1-3.5 1.2 0 2 .4 2.5 1.3l-.8.5c-.4-.7-.8-1-1.7-1-1.3 0-2 .6-2 2.5 0 2 .7 2.7 2 2.7.8 0 1.4-.2 1.8-1.1l.8.5c-.5 1-1.4 1.4-2.7 1.4-2 .2-3-.8-3-3.3zM51.1 5.7c0-1 .6-1.6 2-1.6h1.1c0-.8-.5-1.1-1.2-1.1s-1 .3-1.3.6l-.5-.6c.4-.5 1.1-.8 2-.8 1.2 0 2.2.5 2.2 1.9V7h-1l-.1-.8c-.2.6-.8 1-1.7 1-.9-.2-1.5-.7-1.5-1.5zm3.2-.9h-1.1c-.8 0-1.1.2-1.1.8 0 .5.2.7.8.7.9 0 1.4-.6 1.4-1.5zM57.8 2.2l.1.8c.4-.6 1-1 1.7-1 1.3 0 1.9.8 1.9 2.4S60.8 7 59.3 7c-.6 0-1.2-.2-1.4-.7v2.4h-1.1V2.2h1zm1.4 3.9c.8 0 1.2-.5 1.2-1.7s-.5-1.7-1.2-1.7-1.3.5-1.3 1.7.6 1.7 1.3 1.7zM63.3.1c.5 0 .7.2.7.6s-.2.6-.7.6c-.5 0-.7-.1-.7-.6s.2-.6.7-.6zm.6 2.1v4.7h-1.1V2.2h1.1zM65.6 2.2V.8h1.1v1.3H68V3h-1.3v2.3c0 .7.2 1 .7 1 .2 0 .4 0 .6-.1l.1.7c-.4.1-.6.2-1 .2-1 0-1.6-.5-1.6-1.7V3h-.8v-.8h.9zM68.6 5.7c0-1 .6-1.6 2-1.6h1.1c0-.8-.5-1.1-1.2-1.1s-1.1.2-1.3.6l-.5-.6c.4-.5 1.1-.8 2-.8 1.2 0 2.2.5 2.2 1.9V7h-1l-.1-.8c-.2.6-.8 1-1.7 1-.8-.2-1.5-.7-1.5-1.5zm3.3-.9h-1.1c-.8 0-1.1.2-1.1.8 0 .5.2.7.8.7.9 0 1.4-.6 1.4-1.5zM75.5 6.9h-1.1V.1h1.1v6.8zM80.4 2v5h-1.1V.1h1.2L83 5.5 85.4.1h1.2v6.8h-1v-5l-2.2 4.9h-.8L80.4 2zM88.1 5.7c0-1 .6-1.6 2-1.6h1.1c0-.8-.5-1.1-1.2-1.1s-1 .3-1.3.6l-.4-.6c.4-.5 1.1-.8 2-.8 1.2 0 2.2.5 2.2 1.9V7h-1l-.1-.8c-.2.6-.8 1-1.7 1-1-.2-1.6-.7-1.6-1.5zm3.2-.9h-1.1c-.8 0-1.1.2-1.1.8 0 .5.2.7.8.7.9 0 1.4-.6 1.4-1.5zM94.8 2.2l.1.8c.4-.6 1.1-1 1.8-1 1.2 0 1.8.7 1.8 1.9v3h-1.1V4.2c0-1-.4-1.2-1.1-1.2-.8 0-1.3.6-1.3 1.6v2.3h-1.1V2.2h.9zM99.6 5.7c0-1 .6-1.6 2-1.6h1.1c0-.8-.5-1.1-1.2-1.1s-1.1.2-1.3.6l-.5-.6c.4-.5 1.1-.8 2-.8 1.2 0 2.2.5 2.2 1.9V7h-1l-.1-.8c-.2.6-.8 1-1.7 1-.8-.2-1.5-.7-1.5-1.5zm3.2-.9h-1.1c-.8 0-1.1.2-1.1.8 0 .5.2.7.8.7.8 0 1.4-.6 1.4-1.5zM109.7 6.8c0 1.6-1.1 2.3-2.5 2.3-1 0-1.7-.2-2-1.1l.7-.5c.4.6.7.8 1.3.8.8 0 1.4-.4 1.4-1.3V6c-.4.6-.8.8-1.6.8-1.2 0-2-.8-2-2.4s.7-2.4 2-2.4c.7 0 1.3.2 1.7.8l.1-.7h.8v4.7zm-2.4-3.9c-.8 0-1.2.5-1.2 1.6s.4 1.6 1.2 1.6c.7 0 1.3-.5 1.3-1.6s-.6-1.6-1.3-1.6zM110.9 4.6c0-1.6.8-2.5 2.3-2.5 1.4 0 2 1 2 2.3v.5h-3.4c0 1 .5 1.3 1.3 1.3.6 0 1-.1 1.3-.7l.7.4c-.4.8-1.1 1.1-2 1.1-1.3 0-2.2-.7-2.2-2.4zm1.1-.5h2.3c0-.8-.5-1.2-1.1-1.2-.7 0-1.2.4-1.2 1.2zM116.5 2.2h1l.1.8c.4-.7 1-1 1.7-1 .8 0 1.3.5 1.4 1.1.4-.7 1-1.1 1.8-1.1 1.1 0 1.6.7 1.6 1.8v3H123V4.2c0-.8-.4-1.2-.8-1.2-.7 0-1.2.5-1.2 1.4v2.4h-1.1V4.2c0-1-.4-1.2-1-1.2-.7 0-1.2.5-1.2 1.4v2.4h-1.1l-.1-4.6zM125.2 4.6c0-1.6.8-2.5 2.3-2.5 1.4 0 2 1 2 2.3v.5h-3.4c0 1 .5 1.3 1.3 1.3.6 0 1-.1 1.3-.7l.7.4c-.4.8-1.1 1.1-2 1.1-1.4 0-2.2-.7-2.2-2.4zm1-.5h2.3c0-.8-.5-1.2-1.1-1.2-.7 0-1.2.4-1.2 1.2zM131.7 2.2l.1.8c.4-.7 1-1 1.8-1 1.2 0 1.8.7 1.8 1.9v3h-1.1V4.2c0-1-.4-1.2-1.1-1.2-.8 0-1.3.6-1.3 1.6v2.3h-1.1V2.2h.9zM137 2.2V.8h1.1v1.3h1.3V3h-1.3v2.3c0 .7.2 1 .7 1 .2 0 .4 0 .6-.1l.1.7c-.4.1-.6.2-1 .2-1 0-1.6-.5-1.6-1.7V3h-.8v-.8h.9zM147.6 5.9v1h-4.9V.1h1.1v5.8h3.8zM153.6 5.9v1h-4.9V.1h1.1v5.8h3.8zM154.2 3.5c0-2.5 1.1-3.5 3.1-3.5 1.2 0 2 .4 2.5 1.3l-.8.5c-.4-.7-.8-1-1.7-1-1.3 0-2 .6-2 2.5 0 2 .7 2.7 2 2.7.8 0 1.4-.2 1.8-1.1l.8.5c-.5 1-1.4 1.4-2.7 1.4-2 .2-3-.8-3-3.3z"/></svg><svg id="logo" width="213" height="39.5" viewBox="-6 -6 213 39.5" x="312" y="41.6"><style>.fst0{fill:#19223c}.fst1{fill:#9C0}.fst2{fill:#63C}</style><path class="fst0" d="M201 4.8c0 1.1-1 2.1-2.1 2.1s-2.1-1-2.1-2.1 1-2.1 2.1-2.1 2.1 1 2.1 2.1m-2.1-1.7c-1 0-1.7.8-1.7 1.7s.8 1.7 1.7 1.7c1 0 1.7-.8 1.7-1.7s-.7-1.7-1.7-1.7m1 1.3c0 .3-.3.6-.7.6.1 0 .3.3.8 1h-.4c-.3-.6-.4-1-.8-1h-.3v1h-.5V3.7h.8c.8 0 1.1.4 1.1.7m-1.4.4h.6c.3 0 .6-.1.6-.3 0-.3-.1-.3-.6-.3h-.6v.6m-3.6 19.7h-23.2V3h22.9v3.8h-17.7v4.7h12.2v3.8h-12.2v5.1h18v4.1zM23.2 20.4h-18v-5.1h12.2v-3.8H5.2V6.8h17.7V3H0v21.7h23.2v-4.3zm44-13.5h10.3V3H51.7v4.1H62v17.6h5.2V6.9zM141.1 3h13.7c8.5 0 13 3.7 13 10.8 0 4.2-2 7.1-5.1 9.1-2.1 1.4-5.2 1.8-9.2 1.8H141c.1-.1.1-21.7.1-21.7zm11.8 17.2c6.7 0 9.9-1 9.9-6.7 0-4.7-2.7-6.7-7.6-6.7h-8.6v13.3h6.3zm-39 4.3h-5.2l12.7-21.7h5.1l12.9 21.7h-5.9l-2.7-4.2h-14.3l-2.6 4.2zm4.9-8.4h9.9l-4.8-8.8-5.1 8.8zm-32.6 8.4H81V3h17.4c4.8 0 8.1 2.8 8.1 7.1 0 3.4-1.7 5.7-4.8 6.5l5.4 8.1h-5.8L96 17h-9.8v7.5zm0-11.8H98c2.3 0 3.5-1.1 3.5-2.8s-1.3-2.8-3.5-2.8H86.2v5.6z"/><path class="fst1" d="M37.8 7.9L42.3 0l5.1 3-4.5 7.8h9v5.8h-9l4.5 7.9-5.1 3-4.5-8-3.4-5.8z"/><path class="fst2" d="M37.8 7.9L33.3 0l-5.1 3 4.5 7.8h-9.1v5.8h9.1l-4.5 7.9 5.1 3 4.5-8 3.4-5.8z"/></svg><svg id="text1" width="156" height="25.2" viewBox="-6 -6 156 25.2" x="312" y="287.70000000000005"><style>.gst0{fill:#19223c}</style><path id="gtext1.svg" class="gst0" d="M0 13h3.7V.3H0V13zm16.4 0h3.1V.3H16l.1 7.5L10.4.3H7.6V13H11V6l5.4 7zM22.1.3v3.1h3.7V13h3.6V3.4h3.7V.3h-11zM36 13h3.6V9.1h2l1.6 3.9h4l-2.1-4.5c1.3-.8 2.1-2.2 2-3.8.2-2.2-1.4-4.1-3.6-4.3H36V13zm6-9.8c.7-.1 1.4.5 1.4 1.2v.3c.1.8-.5 1.4-1.2 1.5H39.5v-3H42zm7.5 3.4c0-4.4 2-6.6 6.4-6.6 4.5 0 6.4 2.2 6.4 6.6 0 4.4-2.1 6.6-6.4 6.6-4.5 0-6.4-2.2-6.4-6.6zm3.7 0c0 2.6.9 3.6 2.7 3.6 1.8 0 2.7-1 2.7-3.7 0-2.6-.9-3.6-2.7-3.6-1.9.1-2.7 1-2.7 3.7zm17.5 3.5c1.7 0 2.8-.9 2.8-3.5 0-2.3-.8-3.4-2.5-3.4h-1.9v6.9h1.6zM65.5 13V.3h5.8c4.1 0 5.9 2 5.9 6.2s-1.9 6.4-6.2 6.4l-5.5.1zm22.7-5.1c.1 1.2-.9 2.3-2.1 2.3-1.2.1-2.3-.9-2.3-2.1V.3h-3.6v7.4c0 3.9 2.1 5.5 5.9 5.5 3.7 0 5.8-1.5 5.8-5.5V.3h-3.6c-.1 0-.1 7.6-.1 7.6zm12.9 5.3c2.9 0 4.6-1.2 5.5-3.2l-3-1.4c-.3 1-1.3 1.7-2.4 1.6-1.7 0-2.7-.9-2.7-3.6 0-2.8 1-3.7 2.7-3.7 1-.1 2 .5 2.4 1.5l2.9-1.4c-.8-2.2-2.6-3.1-5.2-3.1-4.3 0-6.4 2-6.4 6.6-.1 4.5 1.9 6.7 6.2 6.7zm8.2-.2h3.7V.3h-3.7V13zm16.4 0h3.1V.3h-3.4l.1 7.5-5.7-7.5h-2.7V13h3.4l-.2-7 5.4 7zm12.1.2c1.4.1 2.7-.5 3.5-1.7l.2 1.4h2.5v-7h-5.5v2.7h2.2c-.1 1.1-1.1 1.9-2.2 1.8-1.8 0-2.8-.9-2.8-3.7 0-2.7.9-3.6 2.7-3.6 1-.1 1.9.4 2.2 1.4l2.9-1.5c-.8-2-2.5-2.9-5.1-2.9-4.3 0-6.4 2.1-6.4 6.6 0 4.4 2.3 6.5 5.8 6.5z"/></svg><svg id="text2" width="208" height="109.2" viewBox="-6 -6 208 109.2" x="312" y="81.1"><style>.hst0{fill:#19223c}.hst1{fill:#63C}</style><path id="htext2.svg" class="hst0" d="M18.5 26.5h6.2L16 1H8.7L0 26.5h6l1.3-4.1h9.8l1.4 4.1zM12.2 6.7l3.5 11.2h-7l3.5-11.2zm15.1 1.7v18.2H33v-9c0-3.1 1.7-4.8 3.9-4.8 2.1 0 3.2 1 3.2 4.2v9.5h5.7V15.3c0-4.3-2.1-7.3-6.7-7.3-2.8-.1-5.3 1.4-6.7 3.8l-.3-3.5-4.8.1zM67.9 27c3.8 0 6.6-1.3 8.1-4.1l-3.5-2.1c-.8 1.5-2.5 2.5-4.2 2.2-2.7 0-4.1-1.1-4.3-4.1h12.2c.1-.7.1-1.3.1-2 0-5.2-2.5-9.2-8.5-9.2-5.9 0-9.2 3.6-9.2 9.7-.1 6.5 3.6 9.6 9.3 9.6zm-.1-15.1c2.1 0 3.2 1.3 3.4 3.8h-7c.1-2.7 1.5-3.8 3.6-3.8zm12.7-3.5v18.2h5.7v-9c0-3.1 1.7-4.8 3.9-4.8 2.1 0 3.2 1 3.2 4.2v9.5H99V15.3C99 11 96.9 8 92.3 8c-2.8-.1-5.3 1.4-6.7 3.8l-.4-3.2-4.7-.2zm21.7 0v4.2h2.8v7.8c0 4.9 2.9 6.6 6.7 6.6 1.5 0 3.1-.3 4.5-1.1l-.7-3.6c-.7.3-1.4.6-2.2.4-1.5 0-2.5-.7-2.5-2.9v-7.1h4.9V8.4h-5V3.2H105v5.2h-2.8zm16.9 0v18.2h5.7V8.4h-5.7zm-.4-5.5c0 2 1.3 2.9 3.4 2.9 2.1 0 3.4-1 3.4-2.9 0-2.1-1.3-2.9-3.4-2.9-2.3 0-3.4 1-3.4 2.9zm11.2 23.6h5.9v-7.1c0-3.9 2-6.3 6-6V7.8c-2.8-.1-5.5 1.5-6.4 4.1l-.6-3.5H130c-.1 0-.1 18.1-.1 18.1zm23.5.5c3.8 0 6.6-1.3 8.1-4.1l-3.5-2.1c-.8 1.5-2.5 2.5-4.2 2.2-2.7 0-4.1-1.1-4.3-4.1h12.2c.1-.7.1-1.3.1-2 0-5.2-2.5-9.2-8.5-9.2-5.9 0-9.2 3.6-9.2 9.7-.2 6.5 3.5 9.6 9.3 9.6zm-.2-15.1c2.1 0 3.2 1.3 3.4 3.8h-7c.1-2.7 1.5-3.8 3.6-3.8zM171.6 1h-5.7v25.6h5.7V1zm9.6 27c-.4 1.4-1.7 2.4-3.1 2.2-.8 0-1.8-.1-2.7-.6l-.6 4.1c1.3.4 2.5.7 3.9.7 3.4 0 6-1.1 7.6-4.6l8.3-21.4h-5.9l-4.1 12-4.2-12h-6l7.1 18.2-.3 1.4zM93.7 43.5l-3.4 11.3-3.2-11.5h-5.3l5.7 18.2h5.2L95.9 50l3.4 11.6h5.2l5.6-18.2h-5.2l-3.1 11.5-3.5-11.5-4.6.1zM117.9 62c2.5.1 4.8-1.1 6-3.2l.4 2.7h4.9v-11c0-5.9-3.6-7.8-8.7-7.8-3.8 0-6.6 1.1-8.3 3.1l2.2 3.2c1.4-1.4 3.2-2.2 5.2-2.1 2.2 0 3.8.7 3.9 3.2H120c-5.2 0-8.1 2.4-8.1 6.3-.2 3.8 2.3 5.6 6 5.6zm1.8-3.6c-1.8 0-2.7-.8-2.7-2.1 0-1.7 1.1-2.5 3.5-2.5h3.1v.2c-.1 2.8-1.5 4.4-3.9 4.4zm18.3 4.7c-.4 1.4-1.7 2.4-3.1 2.2-.8 0-1.8-.1-2.7-.6l-.6 4.1c1.3.4 2.5.7 3.9.7 3.4 0 6-1.1 7.6-4.6l8.4-21.6h-6l-4.1 12-4.2-12h-6l7.1 18.2-.3 1.6zm23-19.7v4.2h2.8v7.8c0 4.9 2.9 6.6 6.7 6.6 1.5 0 3.1-.3 4.5-1.1l-.7-3.6c-.7.3-1.4.6-2.2.4-1.5 0-2.5-.7-2.5-2.9v-7.1h4.9v-4.2h-5v-5.2h-5.6v5.2H161zm29.5 9.1c0 3.8-1.3 5.3-4.1 5.3s-4.1-1.5-4.1-5.3 1.3-5.3 4.1-5.3c2.9.1 4.1 1.5 4.1 5.3zm-13.5 0c0 6.4 3.2 9.7 9.5 9.7s9.5-3.2 9.5-9.7c0-6.6-3.1-9.5-9.5-9.5-6 0-9.5 2.9-9.5 9.5zM2.2 78.5v18.2H8V78.5H2.2zm-.4-5.3c0 2 1.3 2.9 3.4 2.9s3.4-1 3.4-2.9c0-2.1-1.3-2.9-3.4-2.9s-3.4.8-3.4 2.9zm11.4 5.3v18.2h5.7v-9c0-3.1 1.7-4.8 3.9-4.8 2.1 0 3.2 1 3.2 4.2v9.5h5.7V85.4c0-4.3-2.1-7.3-6.7-7.3-2.8-.1-5.3 1.4-6.7 3.8l-.4-3.2h-4.8v-.2zm21 0l7 18.2h6l7.1-18.2h-5.9l-4.1 12.3-4.2-12.3h-5.9zM65 97.2c3.8 0 6.6-1.3 8.1-4.1L69.6 91c-.8 1.5-2.5 2.5-4.2 2.2-2.7 0-4.1-1.1-4.3-4.1h12.2c.1-.7.1-1.3.1-2 0-5.2-2.5-9.2-8.5-9.2-5.9 0-9.2 3.6-9.2 9.7-.1 6.6 3.5 9.6 9.3 9.6zM64.8 82c2.1 0 3.2 1.3 3.4 3.8h-7c.1-2.5 1.4-3.8 3.6-3.8zM84 93.4c-2.1.1-4.1-.8-5.3-2.5l-2.9 2.8c1.5 2.5 4.5 3.5 8.3 3.5 6.2 0 8-2.8 8-5.7 0-2.8-1.7-4.8-5.7-5.6l-2.1-.4c-1.7-.4-2.4-1-2.4-1.7 0-1 1-1.4 2.7-1.4 1.8-.1 3.5.7 4.6 2.1l2.9-2.9c-1.7-2.1-4.1-3.1-7.6-3.1-5.2 0-7.7 2.5-7.7 5.7 0 3.1 2.5 5.2 6.3 6l1.5.3c1.8.4 2.5.7 2.5 1.7-.2.6-1.1 1.2-3.1 1.2zm10.2-14.9v4.2H97v7.8c0 4.9 2.9 6.6 6.7 6.6 1.5 0 3.1-.3 4.5-1.1l-.7-3.6c-.7.3-1.4.6-2.2.4-1.5 0-2.5-.7-2.5-2.9v-7.3h4.9v-4.2h-4.9v-5.2h-5.6v5.2l-3 .1zm35.2 0L126 90l-3.2-11.5h-5.3l5.7 18.2h5.2l3.2-11.6 3.4 11.6h5.2l5.6-18.2h-5.2L137.5 90 134 78.5h-4.6zm19.1 0v18.2h5.7V78.5h-5.7zm-.4-5.3c0 2 1.3 2.9 3.4 2.9 2.1 0 3.4-1 3.4-2.9 0-2.1-1.3-2.9-3.4-2.9-2.3-.2-3.4.8-3.4 2.9zm9.4 5.3v4.2h2.8v7.8c0 4.9 2.9 6.6 6.7 6.6 1.5 0 3.1-.3 4.5-1.1l-.7-3.6c-.7.3-1.4.6-2.2.4-1.5 0-2.5-.7-2.5-2.9v-7.3h4.9v-4.2h-5v-5.2h-5.6v5.2l-2.9.1zm22.7-7.4h-5.7v25.6h5.7v-9c0-3.1 1.7-4.8 3.9-4.8 2.1 0 3.2 1 3.2 4.2v9.5h5.7V85.4c0-4.3-2.1-7.3-6.6-7.3-2.7-.1-5.2 1.4-6.4 3.8l.2-10.8z"/><path class="hst1" d="M2.2 43.4v18.2H8v-9c0-3.1 1.7-4.8 3.9-4.8 2.1 0 3.2 1 3.2 4.2v9.5H21V50.3c0-4.3-2.1-7.3-6.7-7.3-2.8-.1-5.3 1.4-6.7 3.8L7 43.4H2.2zM42.7 52.1c0-5.2-2.5-9.2-8.5-9.2-5.9 0-9.2 3.6-9.2 9.7 0 6.4 3.6 9.5 9.4 9.5 3.8 0 6.6-1.3 8.1-4.1L39 55.9c-.8 1.5-2.5 2.5-4.2 2.2-2.7 0-4.1-1.1-4.3-4.1h12.2c-.1-.5 0-1.2 0-1.9zm-12.5-1.3c.3-2.7 1.5-3.8 3.6-3.8s3.2 1.3 3.4 3.8h-7zM56.4 43.5l-3.5 11.4-3.1-11.5h-5.4l5.7 18.2h5.2L58.5 50l3.4 11.6h5.2l5.6-18.2h-5.2l-3.1 11.5L61 43.5z"/></svg><svg id="text3a" width="312" height="41.6" viewBox="-6 -6 312 41.6" x="312"><style>.ist0{fill:#19223c}</style><path id="itext3a.svg" class="ist0" d="M69.1 29h6.6V1h-6.6v28zm13-19.9V29h6.3v-9.8c0-3.4 1.8-5.2 4.4-5.2 2.3 0 3.5 1.1 3.5 4.6V29h6.3V16.5c0-4.8-2.2-7.9-7.4-7.9-3-.1-5.9 1.5-7.4 4.1l-.5-3.6h-5.2zm23.8 0v4.6h3v8.6c0 5.4 3.2 7.2 7.3 7.2 1.7 0 3.4-.4 4.9-1.2l-.8-4c-.8.4-1.6.5-2.4.5-1.8 0-2.8-.8-2.8-3.2v-8h5.3V9.1h-5.3V3.5H109v5.6h-3.1zM139.4 29h5.2V9.1h-6.3v10.2c0 3.4-1.8 5.1-4.2 5.1s-3.5-1.4-3.5-4.4V9.1h-6.3v12.6c0 4.6 2.3 7.8 7.6 7.8 2.9.1 5.6-1.4 7-3.9l.5 3.4zm10.7-19.9V29h6.3V9.1h-6.3zm-.4-5.8c0 2.2 1.3 3.2 3.6 3.2s3.6-1 3.6-3.2c0-2.3-1.3-3.3-3.6-3.3s-3.6 1-3.6 3.3zM160 9.1v4.6h3v8.6c0 5.4 3.2 7.2 7.3 7.2 1.7 0 3.4-.4 4.9-1.2l-.8-4c-.8.4-1.6.5-2.4.5-1.8 0-2.8-.8-2.8-3.2v-8h5.3V9.1h-5.3V3.5H163v5.6h-3zm18.5 0V29h6.3V9.1h-6.3zm-.5-5.8c0 2.2 1.3 3.2 3.6 3.2s3.6-1 3.6-3.2c0-2.3-1.3-3.3-3.6-3.3S178 1 178 3.3zm9.9 5.8l7.7 19.9h6.5l7.8-19.9h-6.4L199 22.6l-4.6-13.4h-6.5v-.1zm33.8 20.5c4.1 0 7.2-1.4 8.9-4.5l-3.8-2.3c-1 1.9-2.4 2.5-4.6 2.5-2.9 0-4.5-1.3-4.8-4.4h13.4c.1-.7.2-1.4.2-2.2 0-5.6-2.7-10-9.4-10-6.5 0-10.2 3.9-10.2 10.6 0 6.9 4 10.3 10.3 10.3zm-.3-16.6c2.3 0 3.5 1.4 3.7 4.2h-7.7c.2-2.9 1.7-4.2 4-4.2z"/></svg><svg id="text3b1" width="312" height="41.6" viewBox="-6 -6 312 41.6" y="113.6"><style>.jst0{fill:#19223c}</style><path id="jtext3b1.svg" class="jst0" d="M48.2 29.6c3.7 0 6.5-1.5 8-4l.4 3.4h4.6V13.9H49.4v4.9h5.8v.3c-.3 3.9-3.1 5.3-5.9 5.3-4.6 0-7.1-2.2-7.1-9.4s2.5-9.2 7-9.2c2.9 0 4.4.9 5.7 3.4l5.2-2.8c-1.8-4.2-5.4-6-10.9-6-9.1 0-13.6 4.4-13.6 14.5.1 10 4.8 14.7 12.6 14.7zm32.2-10.5c0 4.2-1.4 5.8-4.4 5.8-3.1 0-4.5-1.7-4.5-5.8s1.3-5.8 4.5-5.8c3 0 4.4 1.7 4.4 5.8zm-14.9 0c0 7.1 3.6 10.5 10.4 10.5 6.8 0 10.4-3.5 10.4-10.5 0-7.2-3.4-10.4-10.4-10.4-6.5-.1-10.4 3.2-10.4 10.4zm30.9 10.4c2.7.2 5.2-1.2 6.6-3.5l.4 3h5.3V17.1c0-6.4-4-8.5-9.5-8.5-4.1 0-7.2 1.2-9.1 3.4l2.4 3.5c1.5-1.6 3.6-2.4 5.7-2.3 2.5 0 4.1.7 4.2 3.6h-4c-5.6 0-8.9 2.6-8.9 6.8.2 3.8 2.9 5.9 6.9 5.9zm2-3.9c-2 0-3-.9-3-2.4 0-1.9 1.2-2.7 3.8-2.7h3.4v.4c0 2.9-1.6 4.7-4.2 4.7zM120.5 1h-6.3v28h6.3V1zm19.9 12.1h-15.1V18h15.1v-4.9zM159.5 29h5.4V1h-6.3v10.3c-1.4-1.8-3.6-2.8-5.8-2.7-5.3 0-8.8 3.6-8.8 10.7 0 6.8 3.3 10.3 8.4 10.3 3.2 0 5.5-1.3 6.8-3.6l.3 3zm-.8-9.9c0 4-1.8 5.8-4.4 5.8-2.8 0-4.2-1.8-4.2-5.7 0-4.1 1.4-5.8 4.1-5.8 2.6-.1 4.5 1.5 4.5 5.7zm11.7 9.9h6.3v-7.9c0-4.3 2.2-6.9 6.6-6.5v-6c-3.1-.1-5.9 1.7-7.1 4.5l-.5-4h-5.2l-.1 19.9zm16.5-19.9V29h6.3V9.1h-6.3zm-.5-5.8c0 2.2 1.3 3.2 3.6 3.2s3.6-1 3.6-3.2c0-2.3-1.3-3.3-3.6-3.3s-3.6 1-3.6 3.3zm9.9 5.8L204 29h6.5l7.8-19.9h-6.4l-4.4 13.4-4.6-13.4h-6.6zm33.8 20.5c4.1 0 7.2-1.4 8.9-4.5l-3.8-2.3c-1 1.9-2.4 2.5-4.6 2.5-2.9 0-4.5-1.3-4.8-4.4h13.4c.1-.7.2-1.4.2-2.2 0-5.6-2.7-10-9.4-10-6.5 0-10.2 3.9-10.2 10.6 0 6.9 4 10.3 10.3 10.3zm-.3-16.6c2.3 0 3.5 1.4 3.7 4.2h-7.7c.2-2.9 1.7-4.2 4-4.2zm14-3.9V29h6.3v-9.8c0-3.4 1.8-5.2 4.4-5.2 2.3 0 3.5 1.1 3.5 4.6V29h6.3V16.5c0-4.8-2.2-7.9-7.4-7.9-3-.1-5.9 1.5-7.4 4.1l-.5-3.6h-5.2z"/></svg><svg id="text3c1" width="312" height="41.6" viewBox="-6 -6 312 41.6" y="72"><style>.kst0{fill:#19223c}</style><path id="ktext3c1.svg" class="kst0" d="M48.9 29.6c5.9 0 9.6-2.2 11.7-6.6l-5.2-2.6c-1 2.6-3.5 4.2-6.2 4-4.5 0-7-2.2-7-9.3 0-7.2 2.6-9.2 7-9.2 3 0 4.6.8 5.9 3.6l5.2-2.7C58.4 2.3 54.8.5 49.2.5 40.1.5 35.6 4.8 35.6 15c-.1 10 4.2 14.6 13.3 14.6zm30.8-.6h5.2V9.1h-6.3v10.2c0 3.4-1.8 5.1-4.2 5.1S70.9 23 70.9 20V9.1h-6.3v12.6c0 4.6 2.3 7.8 7.6 7.8 2.9.1 5.6-1.4 7-3.9l.5 3.4zm17.8-3.6c-2.3.1-4.5-.9-5.8-2.8l-3.2 3.1c1.7 2.7 4.9 3.9 9 3.9 6.7 0 8.8-3.1 8.8-6.4 0-3-1.8-5.2-6.3-6.2l-2.3-.5c-1.8-.4-2.6-1-2.6-1.9 0-1.1 1-1.6 2.9-1.6 1.9-.1 3.8.7 5 2.2l3.2-3.3c-1.9-2.4-4.5-3.4-8.3-3.4-5.7 0-8.4 2.7-8.4 6.3 0 3.4 2.8 5.7 6.8 6.6l1.6.4c2 .4 2.7.8 2.7 1.9.1 1-.9 1.7-3.1 1.7zm11.3-16.3v4.6h3v8.6c0 5.4 3.2 7.2 7.3 7.2 1.7 0 3.4-.4 4.9-1.2l-.8-4c-.8.4-1.6.5-2.4.5-1.8 0-2.8-.8-2.8-3.2v-8h5.3V9.1H118V3.5h-6.2v5.6h-3zm32.2 10c0 4.2-1.4 5.8-4.4 5.8-3.1 0-4.5-1.7-4.5-5.8s1.3-5.8 4.5-5.8c3.1 0 4.4 1.7 4.4 5.8zm-14.8 0c0 7.1 3.6 10.5 10.4 10.5 6.8 0 10.4-3.5 10.4-10.5 0-7.2-3.4-10.4-10.4-10.4-6.5-.1-10.4 3.2-10.4 10.4zm25.3 9.9h6.3V19c0-3.3 1.6-4.9 3.8-4.9 2.1 0 3.1 1.2 3.1 4.4V29h6.3V19c0-3.3 1.7-4.8 4-4.8 2 0 3 1.2 3 4.3V29h6.3V16.4c0-4.7-2.1-7.8-6.8-7.8-3.1-.1-6 1.7-7.2 4.6-.6-2.8-3.2-4.8-6.1-4.6-2.8-.1-5.5 1.5-6.8 4l-.6-3.5h-5.2l-.1 19.9zm38.1-19.9V29h6.3V9.1h-6.3zm-.5-5.8c0 2.2 1.3 3.2 3.6 3.2s3.6-1 3.6-3.2c0-2.3-1.3-3.3-3.6-3.3s-3.6 1-3.6 3.3zM200 29h17.8v-4.6h-10.4l10-11.4V9.1h-17.3v4.6h9.9l-10 11.6V29zm31 .6c4.1 0 7.2-1.4 8.9-4.5l-3.8-2.3c-1 1.9-2.4 2.5-4.6 2.5-2.9 0-4.5-1.3-4.8-4.4h13.4c.1-.7.2-1.4.2-2.2 0-5.6-2.7-10-9.4-10-6.5 0-10.2 3.9-10.2 10.6 0 6.9 4 10.3 10.3 10.3zm-.2-16.6c2.3 0 3.5 1.4 3.7 4.2h-7.7c.2-2.9 1.6-4.2 4-4.2zm28.3 16h5.4V1h-6.3v10.3c-1.4-1.8-3.6-2.8-5.8-2.7-5.3 0-8.8 3.6-8.8 10.7 0 6.8 3.3 10.3 8.4 10.3 3.2 0 5.5-1.3 6.8-3.6l.3 3zm-.8-9.9c0 4-1.8 5.8-4.4 5.8-2.8 0-4.2-1.8-4.2-5.7 0-4.1 1.4-5.8 4.1-5.8 2.6-.1 4.5 1.5 4.5 5.7z"/></svg></svg>